<svg width="54" height="54" viewBox="0 0 54 54" fill="none" xmlns="http://www.w3.org/2000/svg">
<circle cx="27" cy="27" r="27" fill="white"/>
<path d="M29.584 36.1391C28.352 36.1391 27.248 35.9391 26.272 35.5391C25.296 35.1391 24.512 34.5471 23.92 33.7631C23.344 32.9791 23.04 32.0351 23.008 30.9311H27.376C27.44 31.5551 27.656 32.0351 28.024 32.3711C28.392 32.6911 28.872 32.8511 29.464 32.8511C30.072 32.8511 30.552 32.7151 30.904 32.4431C31.256 32.1551 31.432 31.7631 31.432 31.2671C31.432 30.8511 31.288 30.5071 31 30.2351C30.728 29.9631 30.384 29.7391 29.968 29.5631C29.568 29.3871 28.992 29.1871 28.24 28.9631C27.152 28.6271 26.264 28.2911 25.576 27.9551C24.888 27.6191 24.296 27.1231 23.8 26.4671C23.304 25.8111 23.056 24.9551 23.056 23.8991C23.056 22.3311 23.624 21.1071 24.76 20.2271C25.896 19.3311 27.376 18.8831 29.2 18.8831C31.056 18.8831 32.552 19.3311 33.688 20.2271C34.824 21.1071 35.432 22.3391 35.512 23.9231H31.072C31.04 23.3791 30.84 22.9551 30.472 22.6511C30.104 22.3311 29.632 22.1711 29.056 22.1711C28.56 22.1711 28.16 22.3071 27.856 22.5791C27.552 22.8351 27.4 23.2111 27.4 23.7071C27.4 24.2511 27.656 24.6751 28.168 24.9791C28.68 25.2831 29.48 25.6111 30.568 25.9631C31.656 26.3311 32.536 26.6831 33.208 27.0191C33.896 27.3551 34.488 27.8431 34.984 28.4831C35.48 29.1231 35.728 29.9471 35.728 30.9551C35.728 31.9151 35.48 32.7871 34.984 33.5711C34.504 34.3551 33.8 34.9791 32.872 35.4431C31.944 35.9071 30.848 36.1391 29.584 36.1391Z" fill="#0F6E8C"/>
</svg>
